<svg enable-background="new 0 0 256 256" viewBox="0 0 256 256" xmlns="http://www.w3.org/2000/svg"><path d="m250 107.8c-.4-2.3-2.4-4.1-4.7-4.2-.1 0-.5 0-.6 0h-4.6c-3.9 0-7.9 0-11.9 0-2.5-10.4-6.6-20.2-12.2-29.4l1.4-1.4c3.5-3.5 7-7.1 10.6-10.5 1.8-1.7 2-4.5.6-6.5-7.9-11-17.5-20.5-28.5-28.4-2-1.4-4.8-1.2-6.5.6-1.9 2-3.9 3.9-5.8 5.8-2.1 2-4.1 4.1-6.1 6.2-9.2-5.6-19.1-9.6-29.5-12.1 0-1.4 0-2.9 0-4.3v-2.4c0-.2 0-.4 0-.6v-2.9c0-2.1 0-4.3 0-6.7 0-2.5-1.8-4.6-4.2-5-13-2.1-26.5-2.1-39.5 0-2.5.4-4.3 2.7-4.2 5.3.1 2.1.1 4.3 0 6.4v2.9.6 2.4 4.3c-10.4 2.5-20.3 6.5-29.5 12.1-2-2.1-4.1-4.1-6.1-6.2-1.9-1.9-3.9-3.9-5.8-5.8-1.7-1.8-4.5-2-6.5-.6-11 7.9-20.6 17.5-28.5 28.4-1.5 2-1.2 4.8.6 6.5 3.6 3.5 7.1 7 10.6 10.5l1.4 1.4c-5.6 9.1-9.7 19-12.2 29.4-4-.1-8-.1-11.9 0h-4.6c-.1 0-.5 0-.6 0-2.4.1-4.4 1.9-4.7 4.2-1.1 6.6-1.6 13.4-1.6 20.2 0 6.7.5 13.5 1.6 20.1.4 2.3 2.2 4 4.5 4.2.4 0 .9.1 1.3.1h10.1 6c2.5 10.5 6.7 20.5 12.4 29.7-2.3 2.2-4.6 4.5-6.8 6.8l-3.8 3.8c-.6.6-1.1 1.1-1.5 1.5-1.6 1.8-1.8 4.4-.4 6.3 7.9 10.9 17.4 20.3 28.3 28.2 1.9 1.4 4.6 1.2 6.3-.4.2-.2.4-.4.5-.5 2.3-2.4 4.6-4.7 6.9-7l4.6-4.6c9.2 5.6 19.1 9.7 29.6 12.2v8.5 8.1.7c.1 2.3 1.9 4.3 4.2 4.6 6.4 1 13.1 1.6 19.7 1.6s13.2-.5 19.7-1.6c2.3-.4 4.1-2.3 4.2-4.6 0-.1 0-.7 0-.8 0-2.7 0-5.3 0-8 0-2.8 0-5.6 0-8.5 10.5-2.5 20.4-6.6 29.6-12.2 1.5 1.6 3.1 3.1 4.6 4.6l6.9 6.9.6.6c1.8 1.6 4.4 1.8 6.3.4 10.9-7.8 20.5-17.3 28.3-28.2 1.4-1.9 1.2-4.6-.4-6.3-.4-.4-.9-1-1.5-1.5l-3.8-3.8c-2.2-2.2-4.5-4.5-6.8-6.8 5.7-9.2 9.8-19.2 12.4-29.7h6 10 1.4c2.3-.2 4.1-1.9 4.5-4.2 1.1-6.6 1.6-13.3 1.6-20.1-.4-6.9-.9-13.6-2-20.3zm-9.3 34.4c-2.2 0-4.4 0-6.6 0-3.1 0-6.2 0-9.4 0-.4 0-.7 0-1 0-2.3.2-4.1 1.8-4.6 4-2.4 12-7.1 23.3-14 33.5-1.2 1.7-1.1 4 0 5.7.4.6.9 1.2 1.6 1.8 2.9 2.8 5.8 5.7 8.7 8.6l2.1 2.1c-5.8 7.4-12.5 14.1-20 19.9-1.4-1.4-2.9-2.9-4.3-4.3-2.2-2.2-4.3-4.3-6.5-6.5-.6-.6-1.2-1.2-1.9-1.6-1.7-1.1-3.8-1.1-5.5 0-10.2 6.8-21.4 11.4-33.3 13.7-1.9.4-3.4 1.8-3.9 3.7-.2.9-.3 1.9-.3 3 .1 3.6.1 7.1.1 10.7v4.1c-9.1 1.1-18.5 1.1-27.7 0 0-1.4 0-2.7 0-4.1 0-3.6 0-7.1.1-10.7 0-1.1-.1-2.1-.3-3-.5-1.9-2-3.4-3.9-3.7-12-2.3-23.2-6.9-33.3-13.7-1.7-1.1-3.8-1.1-5.5 0-.7.4-1.3 1-1.9 1.6-2.1 2.2-4.3 4.4-6.5 6.5-1.4 1.4-2.9 2.8-4.3 4.3-7.5-5.8-14.2-12.5-20-19.9l2.1-2.1c2.9-2.9 5.7-5.8 8.7-8.6.6-.6 1.1-1.2 1.5-1.8 1.2-1.7 1.2-3.9 0-5.7-6.9-10.2-11.6-21.5-14-33.5-.4-2.2-2.3-3.9-4.6-4-.3 0-.7-.1-1.1 0-3.1 0-6.2 0-9.3 0-2.2 0-4.3 0-6.6 0-.6-4.7-.9-9.5-.9-14.2 0-4.8.3-9.6.9-14.3h.7c4.5 0 9.2 0 13.8.1 1.3 0 2.4-.1 3.4-.3 1.9-.5 3.3-2 3.6-3.9 2.4-11.8 7-22.9 13.7-33 1.1-1.7 1.1-3.8.1-5.5-.7-1.1-1.6-2-2.8-3.2l-2-2c-2.5-2.5-5-5-7.5-7.5 5.9-7.7 12.7-14.4 20.3-20.3l2.8 2.8c2.5 2.5 5 5 7.4 7.5.7.7 1.8 1.7 3.3 2.4 1.6.7 3.4.5 4.8-.4 10.1-6.7 21.2-11.3 33.1-13.6 1.9-.4 3.4-1.8 3.9-3.6.2-.9.3-1.8.3-2.9-.1-2.3-.1-4.5 0-6.8v-3.1c0-.2 0-.4 0-.6v-2.2c0-.8 0-1.6 0-2.4 9.2-1.1 18.5-1.1 27.7 0v2.4 2.2.6 3.1 6.8c0 1.1.1 2 .3 2.9.5 1.8 2 3.3 3.9 3.6 11.9 2.3 23 6.9 33.1 13.6 1.4.9 3.2 1.1 4.8.4 1.5-.7 2.6-1.7 3.3-2.4 2.4-2.5 4.9-5 7.4-7.5l2.8-2.8c7.6 5.9 14.4 12.6 20.2 20.1-2.5 2.5-5 5-7.5 7.5l-2 2c-1.2 1.2-2.1 2.1-2.8 3.2-1.1 1.7-1 3.8.1 5.5 6.7 10.1 11.3 21.2 13.7 33 .4 1.9 1.8 3.4 3.6 3.9 1 .3 2.1.4 3.4.3 4.6-.2 9.3-.1 13.8-.1h.7c.6 4.7.9 9.6.9 14.3 0 5-.3 9.7-.9 14.4z"/><path d="m180.7 90.1c-4.1-5.8-9.2-10.8-15-14.9-8.1-5.8-17.6-9.7-27.4-11.3-6.8-1.1-13.9-1.1-20.7 0-9.8 1.6-19.3 5.5-27.4 11.3-5.8 4.1-10.8 9.2-15 14.9-5.8 8.1-9.7 17.5-11.4 27.3-.6 3.5-.9 7-.9 10.6 0 3.5.3 7.1.8 10.5 1.6 9.9 5.6 19.4 11.5 27.5 4.1 5.7 9.1 10.7 14.9 14.8 8.1 5.8 17.6 9.7 27.4 11.3 3.4.5 6.9.8 10.3.8s6.9-.3 10.3-.8c9.8-1.6 19.3-5.5 27.4-11.3 5.7-4.1 10.7-9.1 14.9-14.8 5.9-8.1 9.9-17.6 11.5-27.5.6-3.5.8-7 .8-10.5 0-3.6-.3-7.1-.9-10.6-1.3-9.8-5.3-19.2-11.1-27.3zm1.5 46.8c-1.4 8.3-4.7 16.4-9.7 23.2-3.5 4.8-7.7 9-12.6 12.5-6.8 4.9-14.8 8.2-23.1 9.5-5.8.9-11.7.9-17.5 0-8.3-1.3-16.3-4.6-23.2-9.5-4.8-3.5-9.1-7.7-12.6-12.5-5-6.9-8.3-14.9-9.7-23.2-.5-2.9-.7-5.9-.7-8.9s.2-6 .7-9c1.4-8.3 4.7-16.3 9.6-23.1 3.5-4.9 7.8-9.1 12.7-12.6 6.8-4.9 14.8-8.2 23.1-9.5 2.9-.5 5.8-.7 8.8-.7s5.9.2 8.8.7c8.3 1.3 16.3 4.6 23.1 9.5 4.9 3.5 9.2 7.8 12.7 12.6 4.9 6.8 8.2 14.8 9.6 23.1.5 2.9.7 5.9.7 9 0 3-.3 6-.7 8.9z"/><path d="m153.5 105.8-35.5 33.7-15.3-15.9c-1.9-2-5.1-2.1-7.1-.1-2 1.9-2.1 5.1-.1 7.1l18.8 19.5c1 1 2.3 1.5 3.6 1.5 1.2 0 2.5-.5 3.5-1.4l39.2-37.2c2-1.9 2.1-5.1.2-7.1-2.1-2-5.2-2.1-7.3-.1z"/></svg>