<svg height="141.732" width="141.732" xmlns="http://www.w3.org/2000/svg"><path d="m-1-1h582v402h-582z" fill="none"/><path d="m62.595 104.362173c0-.562.448-1.013 1.008-1.013h14.525c.561 0 1.012.45 1.012 1.013 0 .561-.451 1.014-1.012 1.014h-14.525c-.558-.001-1.008-.454-1.008-1.014m58.408-6.443h-100.688v-67.445h100.688zm20.021 6.939c0-1.5-1.213-2.716-2.707-2.716v-.193h-14.363c.732-.328 1.246-1.063 1.246-1.923v-71.664c0-1.164-.938-2.107-2.1-2.107h-104.884c-1.155 0-2.097.943-2.097 2.107v71.663c0 .855.513 1.595 1.245 1.923h-13.95v.188c-1.494-.001-2.706 1.217-2.706 2.719s1.212 2.72 2.706 2.72h134.903c1.496-.002 2.707-1.217 2.707-2.717"/></svg>